<svg xmlns="http://www.w3.org/2000/svg" viewBox="0 0 870.42 446.63"><defs><style>.cls-1{fill:#cf4d36;}</style></defs><g id="Layer_2" data-name="Layer 2"><g id="Layer_1-2" data-name="Layer 1"><path d="M249.32,33.22q-8.69,1.1-14.75,2.17t-13.67,3Q212,40.82,209.5,46.9A36.46,36.46,0,0,0,207,60.8V230.61a97.58,97.58,0,0,1-9.44,43,93.76,93.76,0,0,1-25.93,32.79A119.56,119.56,0,0,1,134.32,326a143.39,143.39,0,0,1-44,6.63q-40.59,0-65.42-19.53T0,259.54q0-20.18,11.39-33.42t31.36-13.23q18.87,0,30.05,11.06T84,251.29q0,13.89-9.65,25.72a150,150,0,0,1-22,21.81v2.82q2,4.33,8.49,7.37a31.1,31.1,0,0,0,13.27,3q26.11,0,41-18.67T130,236.91V63a31.17,31.17,0,0,0-2.4-13q-2.4-5.2-11.56-9.12A84.57,84.57,0,0,0,100.21,36Q91,34.09,84.84,33.22V16.29H249.32Z"/><path class="cls-1" d="M866,304.47c-3.81-1.86-8.13-1.25-12.2-1.83-15.67-2.11-30.27-9.51-42.52-19.3-12.29-10.15-23.83-21.17-35.48-32-22.94-22.09-44.68-45.39-67.18-67.93-4.88-5.07-9.31-10.68-14.84-15l.2-.73c-1.35,1.12-2.73,2.22-4.1,3.3a8.17,8.17,0,0,0-2,2.74l-1.46.73c-1.73,1.6-3.47,3.19-5.16,4.83a56.17,56.17,0,0,0-4.26,4.05c-1.73,1.94-3.77,3.59-5.39,5.62l1,1.64q25.37,27.78,51.23,55.07c12.45,12.75,24.51,25.91,37.83,37.78,11,8.61,21.85,18.36,35.61,22.21,10,3.07,20.64,2.72,31,3.22,10.22,0,20.43.09,30.65,0C861.83,308.56,866.46,308.39,866,304.47Z"/><path d="M540.75,263.94c-3.83-1.54-6.56-4.24-8.73-6.38-1.38-1.35-2.93-2.89-3.73-3l-.33,0-.33-.06c-15.24-2.84-27.9-13.14-33.49-26.21q-4.9,23.36-15.3,40.36a71.88,71.88,0,0,1-28.43,26.69q-17.57,9.12-42.09,9.12-11.71,0-19-2.5a34.45,34.45,0,0,1-12.26-7A25.24,25.24,0,0,1,370,284.39,42,42,0,0,1,368,270.61V36.91c3.18-.14,8-.33,14.43-.54S394.57,36,399.64,36q23.87,0,42.64,9.76a87.45,87.45,0,0,1,31.35,27.56q12.58,17.81,19.1,43t6.51,55.76q0,10.35-.54,19.89c.6-.79,1.22-1.57,1.89-2.33,9.35-10.78,22.93-17.24,36.29-17.24a40.51,40.51,0,0,1,8.32.86,37,37,0,0,1,12.58,3.84,35.41,35.41,0,0,1,7.68,3.23,34.56,34.56,0,0,0,3.22,1.57l.19.07.18.09a22.29,22.29,0,0,0,9.28,1.72,52.82,52.82,0,0,0,7.38-.59c.21-3.57.32-7.19.32-10.89q0-44.48-17.36-75.19T523.11,48A174.72,174.72,0,0,0,465.39,23a257.43,257.43,0,0,0-56.2-6.73H245.36V33.22q5,.44,14.21,1.74A64.4,64.4,0,0,1,277,40q8.25,3.69,11.07,9.65A31,31,0,0,1,290.93,63V281.24a27.39,27.39,0,0,1-3,13.34q-3,5.54-10.85,8.79c-2.32,1-6.94,1.88-13.89,2.61s-12.73,1.16-17.36,1.3V324.2H400.94a263,263,0,0,0,69.33-9,185.52,185.52,0,0,0,59.13-27.45,134,134,0,0,0,18.66-16.24A17.45,17.45,0,0,1,540.75,263.94Z"/><path class="cls-1" d="M595.59,19.08c4.77,1.51,9,5,10.64,9.86,2.71,8,1.78,16.52,2.51,24.78.37,24.93.16,49.86.21,74.79.17,14.89-.31,29.8.25,44.67,2.15-1.12,4.25-2.35,6.39-3.49,3.94-2.31,8-4.61,11.12-8.06l.66,0a140.08,140.08,0,0,0,12.3-12c1.15-1,.68-2.66.81-4-.07-24.93,0-49.86,0-74.78.08-12.12,0-24.27,1.25-36.34.72-5.51,2.62-11.7,7.85-14.51,5.76-3,12.5-2.84,18.8-3.83.1-1.22.2-2.43.27-3.66a12.17,12.17,0,0,0-5.12-1.39c-8.42-.19-16.82.6-25.23.69-18.62,1-37.24-.68-55.86-.72-2.26,0-4.6-.06-6.69.9-1.64,1-.9,2.89-.45,4.33C582.1,17.16,589.11,16.64,595.59,19.08Z"/><path class="cls-1" d="M827.05.24a53.9,53.9,0,0,0-5.46,4.43Q750.43,64.55,679.33,124.5c-13.1,11.57-24.65,24.75-36.93,37.16-.78,2.72-.1,5.54,0,8.32.31,4.84-.6,9.63-1.45,14.37a67.13,67.13,0,0,1-7.77,19.19,111.11,111.11,0,0,1-26.38,30.3c-6.09,4.73-13.11,8-19.85,11.68-10.17,5.37-20.27,11.15-28.88,18.85a75,75,0,0,0-23.78,39.54,150.71,150.71,0,0,0-4.37,28.47,4.49,4.49,0,0,1,2,.64c.39.25.8.45,1.21.67l.18.09.33.13c1.27.5,2.54,1,3.78,1.61.13.07.24.16.37.24.22-4.42,1.55-8.95,5.13-11.76,4.89-3.57,11.33-3.38,17.07-2.73,9,1,18.45.28,26.47-4.17,4.46-2.11,8.07-5.53,11.82-8.59,9.14-.3,18.29-.72,27.45-1,13.79.78,27.62.79,41.42,1.32,2.67-.08,5.62.14,8-1.2,1.48-.87.94-2.66.64-4-4.48-.83-9.07-.71-13.56-1.48-4.79-.5-10.13-1-13.71-4.64-4.52-4.37-5.31-11-6.06-16.89-2.1-21.46-1.94-43.06-1.92-64.59,3-10.4,9.82-19.19,16.78-27.26,1.7-1.73,3.31-3.54,5.11-5.18l-.09-.56a33.45,33.45,0,0,0,5.95-5.82c1-.73,1.91-1.48,2.84-2.25l2.06-2.32a17.89,17.89,0,0,0,1.87-1.71c5.52-5.4,11.38-10.43,16.84-15.88,11.42-10.83,21.51-22.91,32.31-34.33C759.55,81.92,795.17,43.35,830.48,4.53,832.59,2.47,829.35-.93,827.05.24ZM575.33,313.18c-11.37,2.12-23.48-6.49-25-18-1.35-9.85,4-19.24,10.73-26,4.27-4.17,9.46-7.7,15.4-8.91a20.12,20.12,0,0,1,20.68,7.53,23.73,23.73,0,0,1,4.42,11.94C602.68,295.26,591,311,575.33,313.18Z"/><path class="cls-1" d="M552,264.56a4.43,4.43,0,0,0,6-3.74c.27-3.25-2.16-5.78-4.21-8,3.17-3.41,2.3-8.31,3.77-12.37,5-7.57,10.21-15,15.58-22.28,5.82-7.92,14.42-13.17,23.11-17.44a229.23,229.23,0,0,1,27.1-12.63c1.66-.38,3.29-.91,4.92-1.39,1-.35,2-.73,3-1.13l2.79-.11,0-.94c2.41-5.1,2.33-11,1.62-16.44l-2.58,2-1.89,1.83c-3.47,2.35-7,4.63-10.49,6.93-2.12,1.07-4.24,2.13-6.31,3.28a99.3,99.3,0,0,1-25.73,8.71c-7.61,1.23-15.78,1.78-23-1.48-3.66-1.44-6.94-4-10.85-4.68a28.42,28.42,0,0,0-11-3.5c-13.77-3-28.25,3.36-37.27,13.76-5,5.7-8.25,13.24-7.45,20.93,1.3,15.57,15.07,28,30,30.77,7.35.75,10,10.12,17.54,10.52C547.49,260.12,549.11,263.16,552,264.56Zm-37.47-33.89c-6-5.34-9.9-14.07-7-22,3.58-10.39,13.65-17.42,24-19.94,11.58-3.17,25.27,2.22,30.55,13.22a20.6,20.6,0,0,1-.48,19.17,34.28,34.28,0,0,1-20.48,16.3A29.57,29.57,0,0,1,514.55,230.67Z"/><path class="cls-1" d="M55.87,377.32c-1.29.17-2.39.33-3.29.5s-1.92.4-3,.71a3.45,3.45,0,0,0-2.54,2,8.47,8.47,0,0,0-.56,3.21V423A23.17,23.17,0,0,1,44.32,433a21.49,21.49,0,0,1-5.78,7.59,26.51,26.51,0,0,1-8.33,4.55,31,31,0,0,1-9.83,1.53q-9.06,0-14.6-4.52T.24,429.71A11.68,11.68,0,0,1,2.78,422a8.59,8.59,0,0,1,7-3.06,8.91,8.91,0,0,1,6.7,2.56A8.74,8.74,0,0,1,19,427.8a9.39,9.39,0,0,1-2.15,5.95,33.91,33.91,0,0,1-4.91,5.05v.65a3.66,3.66,0,0,0,1.89,1.71,6.73,6.73,0,0,0,3,.7,10.89,10.89,0,0,0,9.15-4.32q3.33-4.32,3.33-13.07V384.21a7.39,7.39,0,0,0-.54-3,4.69,4.69,0,0,0-2.57-2.11A18,18,0,0,0,22.6,378c-1.38-.3-2.52-.52-3.43-.65V373.4h36.7Z"/><path class="cls-1" d="M136.34,444.67H98.91v-3.91a45.93,45.93,0,0,0,6.14-1c2.35-.52,3.53-1.17,3.53-1.94a6.1,6.1,0,0,0-.07-.9,7.06,7.06,0,0,0-.41-1.36l-5.87-14.76H78.51q-.81,2.06-1.8,4.82T75,430.56a26.23,26.23,0,0,0-1.08,4.07,13.94,13.94,0,0,0-.17,1.76q0,1.61,2.34,2.73a24.7,24.7,0,0,0,7.81,1.64v3.91H55.72v-3.91a26.26,26.26,0,0,0,3.61-.53,9.4,9.4,0,0,0,3.17-1.18,12.33,12.33,0,0,0,3.37-3,16.31,16.31,0,0,0,2.3-4.17q5.61-14.12,11.26-28.28T91.89,372.4h9.69q9.48,24.21,14.86,38.27T125.59,434a11.94,11.94,0,0,0,1.6,2.73,10.35,10.35,0,0,0,5.91,3.54,21.91,21.91,0,0,0,3.24.51Zm-36.1-28.83L90.3,390.08l-9.8,25.76Z"/><path class="cls-1" d="M215.9,377.32c-.91.1-2.2.28-3.88.55a10,10,0,0,0-4.55,2,7.75,7.75,0,0,0-2.54,4.65,46.58,46.58,0,0,0-.75,9.67v50.93h-8.62L152.76,390v33.45a41.81,41.81,0,0,0,.8,9.47,8.64,8.64,0,0,0,2.59,4.74,11.77,11.77,0,0,0,4.16,2,42.92,42.92,0,0,0,4.55,1.16v3.91H135.33v-3.91a30.07,30.07,0,0,0,4.33-.73,11.37,11.37,0,0,0,4.09-1.78,7.57,7.57,0,0,0,2.59-4.4A47.85,47.85,0,0,0,147,424V390.23a14.82,14.82,0,0,0-.75-4.75,9.71,9.71,0,0,0-2.35-3.84,12.73,12.73,0,0,0-3.89-2.69,23.81,23.81,0,0,0-5-1.53v-4H160.9l37.56,48.2v-27a40.73,40.73,0,0,0-.82-9.56,8.82,8.82,0,0,0-2.61-4.65,12.09,12.09,0,0,0-4.17-2,42.07,42.07,0,0,0-4.45-1.13V373.4H215.9Z"/><path class="cls-1" d="M307.26,380.73a31.92,31.92,0,0,1,10.17,11.38q3.87,7.11,3.87,17.41a33.85,33.85,0,0,1-3.46,15.74,31.66,31.66,0,0,1-9.17,11,41,41,0,0,1-13.2,6.35A56.65,56.65,0,0,1,280,444.67H245.38v-3.91c1,0,2.33-.14,3.88-.3a11.69,11.69,0,0,0,3.09-.61,4.73,4.73,0,0,0,2.43-2,6.56,6.56,0,0,0,.67-3.09V384.2a7.36,7.36,0,0,0-.63-3.09,4.72,4.72,0,0,0-2.47-2.23,13.89,13.89,0,0,0-3.89-1.16c-1.38-.2-2.43-.33-3.17-.4V373.4h36.55A55.23,55.23,0,0,1,294.38,375,38.24,38.24,0,0,1,307.26,380.73Zm-9.88,51.09a30,30,0,0,0,3.47-9.57,67.42,67.42,0,0,0,1.09-12.79,53.19,53.19,0,0,0-1.46-12.9,30.77,30.77,0,0,0-4.26-9.95A19.2,19.2,0,0,0,279.71,378c-1.13,0-2.41,0-3.85.08l-3.22.12v54.1a10.31,10.31,0,0,0,.46,3.19,5.82,5.82,0,0,0,1.58,2.43,7.6,7.6,0,0,0,2.73,1.64,13.07,13.07,0,0,0,4.24.57A19.5,19.5,0,0,0,291,438,16.18,16.18,0,0,0,297.38,431.82Z"/><path class="cls-1" d="M389,391.58h-3.68a26.73,26.73,0,0,0-4.84-8.2q-3.44-4.15-6.83-4.91a20.91,20.91,0,0,0-4-.42c-1.73-.05-3.15-.08-4.28-.08h-10v27.48h7.07a16.61,16.61,0,0,0,4.84-.66,9,9,0,0,0,4-2.51,12.39,12.39,0,0,0,2.25-4.07,24.46,24.46,0,0,0,1.48-5.07h3.68v29.74H375a25.19,25.19,0,0,0-1.48-5.3,15,15,0,0,0-2.25-4.4,8.23,8.23,0,0,0-3.77-2.48,16.75,16.75,0,0,0-5-.68h-7.07v20.54a22.27,22.27,0,0,0,.46,5.1,5.11,5.11,0,0,0,1.72,2.89,6.9,6.9,0,0,0,3.32,1.25,42.66,42.66,0,0,0,5.73.3c1.13,0,2.49,0,4.07-.05a34.79,34.79,0,0,0,4.17-.3,26.35,26.35,0,0,0,3.8-.75,5.56,5.56,0,0,0,2.64-1.46,41.13,41.13,0,0,0,5.23-7.51,55,55,0,0,0,3.82-7.56h3.54l-1.31,22.2H328.08v-3.91c.91-.07,2.13-.2,3.68-.4a14.54,14.54,0,0,0,3.29-.71,4.71,4.71,0,0,0,2.47-2,6.88,6.88,0,0,0,.63-3.14V384.2a7.24,7.24,0,0,0-.53-3,5,5,0,0,0-2.57-2.13,17.24,17.24,0,0,0-3.53-1.11c-1.52-.33-2.66-.55-3.44-.65V373.4H389Z"/><path class="cls-1" d="M505.49,444.67H478.28q-6.15-9.78-11.09-16.37t-12.64-16.52H452v22.4a6.79,6.79,0,0,0,.63,3.06,4.91,4.91,0,0,0,2.52,2.11,13.74,13.74,0,0,0,2.59.8,32.34,32.34,0,0,0,3.42.61v3.91H424.68v-3.91l3.7-.3a12.69,12.69,0,0,0,3.37-.61,4.52,4.52,0,0,0,2.42-2,6.6,6.6,0,0,0,.68-3.16V384.2a6.73,6.73,0,0,0-.59-3,5.06,5.06,0,0,0-2.51-2.16,16.68,16.68,0,0,0-3.63-1.16c-1.42-.3-2.57-.5-3.44-.6V373.4H462.4v3.92c-1,.1-2.21.24-3.61.43a19.67,19.67,0,0,0-3.61.77,4,4,0,0,0-2.52,2.06,7.56,7.56,0,0,0-.63,3.12v24h2q3.78-3.57,8.81-8.59t7.8-8.24q3.87-4.47,5.69-7.08a8.36,8.36,0,0,0,1.81-4.52c0-.57-.58-1-1.74-1.31a29.47,29.47,0,0,0-5.33-.65V373.4H501v3.92a36.51,36.51,0,0,0-9.1,2,23.55,23.55,0,0,0-7.3,4.8q-5.18,4.82-8.53,8.35l-8.62,9.06q4.63,5.88,11.17,14.4t13,16.61a31.6,31.6,0,0,0,3.77,3.94,18.41,18.41,0,0,0,4.69,3,12.52,12.52,0,0,0,2.75.86,19.74,19.74,0,0,0,2.66.35Z"/><path class="cls-1" d="M580.35,444.67H542.92v-3.91a45.81,45.81,0,0,0,6.13-1c2.36-.52,3.53-1.17,3.53-1.94a6.1,6.1,0,0,0-.07-.9,7.06,7.06,0,0,0-.41-1.36l-5.86-14.76H522.52q-.82,2.06-1.81,4.82T519,430.56a26.23,26.23,0,0,0-1.08,4.07,13.94,13.94,0,0,0-.17,1.76q0,1.61,2.34,2.73a24.71,24.71,0,0,0,7.82,1.64v3.91H499.73v-3.91a26.48,26.48,0,0,0,3.61-.53,9.57,9.57,0,0,0,3.17-1.18,12.43,12.43,0,0,0,3.36-3,16,16,0,0,0,2.3-4.17l11.26-28.28q5.64-14.16,12.47-31.24h9.68q9.49,24.21,14.87,38.27T569.6,434a11.9,11.9,0,0,0,1.59,2.73,10.66,10.66,0,0,0,2.76,2.34,10.81,10.81,0,0,0,3.15,1.2,22.23,22.23,0,0,0,3.25.51Zm-36.11-28.83-9.94-25.76-9.8,25.76Z"/><path class="cls-1" d="M645.37,391.23A21.11,21.11,0,0,1,643,401.6a19.43,19.43,0,0,1-6.6,7.06,30.57,30.57,0,0,1-10,4.07A57.39,57.39,0,0,1,613.85,414h-5.62v20a7,7,0,0,0,.66,3.14,4.67,4.67,0,0,0,2.49,2.13,19.17,19.17,0,0,0,3.15.85,34.43,34.43,0,0,0,3.68.61v3.91H581v-3.91l3.73-.43a12.71,12.71,0,0,0,3.25-.68,4.71,4.71,0,0,0,2.49-2,7,7,0,0,0,.61-3.21V384.2a7.29,7.29,0,0,0-.59-3A4.6,4.6,0,0,0,588,379a18.37,18.37,0,0,0-3.61-1.08c-1.5-.32-2.62-.53-3.37-.63V373.4h37.92q13.3,0,19.9,4.4T645.37,391.23Zm-18.88,2.56q0-8-3.12-11.92T612.25,378h-4v31.29h2q7.93,0,12.08-3.79T626.49,393.79Z"/><path class="cls-1" d="M714.9,391.23a21.22,21.22,0,0,1-2.39,10.37,19.54,19.54,0,0,1-6.61,7.06,30.57,30.57,0,0,1-9.95,4.07A57.39,57.39,0,0,1,683.38,414h-5.62v20a7,7,0,0,0,.66,3.14,4.67,4.67,0,0,0,2.49,2.13,19.17,19.17,0,0,0,3.15.85,34.43,34.43,0,0,0,3.68.61v3.91H650.5v-3.91l3.73-.43a12.71,12.71,0,0,0,3.25-.68,4.71,4.71,0,0,0,2.49-2,7,7,0,0,0,.61-3.21V384.2a7.29,7.29,0,0,0-.59-3,4.6,4.6,0,0,0-2.51-2.13,18.37,18.37,0,0,0-3.61-1.08c-1.5-.32-2.62-.53-3.37-.63V373.4h37.92q13.3,0,19.9,4.4T714.9,391.23ZM696,393.79q0-8-3.12-11.92T681.78,378h-4v31.29h2q7.94,0,12.08-3.79T696,393.79Z"/><path class="cls-1" d="M781,391.58h-3.68a26.78,26.78,0,0,0-4.85-8.2q-3.43-4.15-6.82-4.91a21.12,21.12,0,0,0-4.05-.42c-1.72-.05-3.15-.08-4.28-.08h-10v27.48h7.07a16.61,16.61,0,0,0,4.84-.66,9.1,9.1,0,0,0,4-2.51,12.77,12.77,0,0,0,2.25-4.07,25,25,0,0,0,1.47-5.07h3.68v29.74H766.9a25.69,25.69,0,0,0-1.47-5.3,15,15,0,0,0-2.25-4.4,8.31,8.31,0,0,0-3.78-2.48,16.7,16.7,0,0,0-5-.68h-7.07v20.54a22.85,22.85,0,0,0,.46,5.1,5.11,5.11,0,0,0,1.72,2.89,6.94,6.94,0,0,0,3.32,1.25,42.83,42.83,0,0,0,5.74.3c1.13,0,2.48,0,4.06-.05a34.63,34.63,0,0,0,4.17-.3,26.35,26.35,0,0,0,3.8-.75,5.46,5.46,0,0,0,2.64-1.46,41.13,41.13,0,0,0,5.23-7.51,55,55,0,0,0,3.82-7.56h3.54l-1.31,22.2H720v-3.91c.91-.07,2.13-.2,3.68-.4a14.8,14.8,0,0,0,3.3-.71,4.75,4.75,0,0,0,2.47-2,7,7,0,0,0,.63-3.14V384.2a7.23,7.23,0,0,0-.54-3,4.93,4.93,0,0,0-2.56-2.13,17.36,17.36,0,0,0-3.54-1.11c-1.52-.33-2.66-.55-3.44-.65V373.4H781Z"/><path class="cls-1" d="M870.42,444.67H844.06q-6.82-10.85-11.35-17.27t-11.25-14.87h-2.65v21.65a6.65,6.65,0,0,0,.65,3.06,5.07,5.07,0,0,0,2.5,2.11,15.83,15.83,0,0,0,2.88.83,33.63,33.63,0,0,0,3.36.58v3.91H791.55v-3.91l3.7-.43a13.24,13.24,0,0,0,3.27-.68,4.71,4.71,0,0,0,2.47-2,6.88,6.88,0,0,0,.63-3.14V384.2a7.55,7.55,0,0,0-.53-3,4.68,4.68,0,0,0-2.57-2.11,20.05,20.05,0,0,0-3.65-1.11c-1.41-.3-2.51-.52-3.32-.65V373.4h38.54q12.93,0,19.63,4.2t6.71,12.68q0,7.49-4.14,12t-12.61,7.11q3.29,4.41,7.67,10.24t9.13,11.91q1.5,1.95,4.09,4.79a11.91,11.91,0,0,0,4.58,3.49,17.89,17.89,0,0,0,2.83.61c1.14.16,2,.26,2.44.3Zm-33-53q0-7.12-3.85-10.42t-11-3.29h-3.82v29.84h3.68q7.11,0,11-3.87T837.45,391.68Z"/><line x1="2.03" y1="351.92" x2="864.48" y2="351.92"/><rect x="2.03" y="347.92" width="862.46" height="8"/></g></g></svg>